%TF.GenerationSoftware,KiCad,Pcbnew,(6.0.0)*%
%TF.CreationDate,2022-01-11T14:15:25-05:00*%
%TF.ProjectId,automatic_night_light,6175746f-6d61-4746-9963-5f6e69676874,1*%
%TF.SameCoordinates,Original*%
%TF.FileFunction,Copper,L2,Bot*%
%TF.FilePolarity,Positive*%
%FSLAX46Y46*%
G04 Gerber Fmt 4.6, Leading zero omitted, Abs format (unit mm)*
G04 Created by KiCad (PCBNEW (6.0.0)) date 2022-01-11 14:15:25*
%MOMM*%
%LPD*%
G01*
G04 APERTURE LIST*
%TA.AperFunction,ComponentPad*%
%ADD10R,2.200000X2.200000*%
%TD*%
%TA.AperFunction,ComponentPad*%
%ADD11O,2.200000X2.200000*%
%TD*%
%TA.AperFunction,ComponentPad*%
%ADD12R,1.800000X1.800000*%
%TD*%
%TA.AperFunction,ComponentPad*%
%ADD13C,1.800000*%
%TD*%
%TA.AperFunction,ComponentPad*%
%ADD14C,1.500000*%
%TD*%
%TA.AperFunction,ComponentPad*%
%ADD15O,1.050000X1.500000*%
%TD*%
%TA.AperFunction,ComponentPad*%
%ADD16R,1.050000X1.500000*%
%TD*%
%TA.AperFunction,ComponentPad*%
%ADD17C,1.620000*%
%TD*%
%TA.AperFunction,ComponentPad*%
%ADD18C,1.400000*%
%TD*%
%TA.AperFunction,ComponentPad*%
%ADD19O,1.400000X1.400000*%
%TD*%
G04 APERTURE END LIST*
D10*
%TO.P,D1,1,K*%
%TO.N,Net-(D1-Pad1)*%
X128778000Y-70612000D03*
D11*
%TO.P,D1,2,A*%
%TO.N,+9V*%
X128778000Y-60452000D03*
%TD*%
D12*
%TO.P,D3,1,K*%
%TO.N,GND*%
X145288000Y-62484000D03*
D13*
%TO.P,D3,2,A*%
%TO.N,Net-(D2-Pad2)*%
X142748000Y-62484000D03*
%TD*%
%TO.P,D2,2,A*%
%TO.N,Net-(D2-Pad2)*%
X143007000Y-70104000D03*
D12*
%TO.P,D2,1,K*%
%TO.N,GND*%
X145547000Y-70104000D03*
%TD*%
D14*
%TO.P,R1,2*%
%TO.N,GND*%
X133018000Y-80518000D03*
%TO.P,R1,1*%
%TO.N,Net-(R2-Pad1)*%
X129618000Y-80518000D03*
%TD*%
D15*
%TO.P,Q1,2,B*%
%TO.N,Net-(Q1-Pad2)*%
X133858000Y-65172000D03*
%TO.P,Q1,3,C*%
%TO.N,Net-(D1-Pad1)*%
X132588000Y-65172000D03*
D16*
%TO.P,Q1,1,E*%
%TO.N,Net-(Q1-Pad1)*%
X135128000Y-65172000D03*
%TD*%
D17*
%TO.P,RV1,3,3*%
%TO.N,unconnected-(RV1-Pad3)*%
X133524000Y-76200000D03*
%TO.P,RV1,2,2*%
%TO.N,Net-(R2-Pad1)*%
X131024000Y-73700000D03*
%TO.P,RV1,1,1*%
%TO.N,Net-(D1-Pad1)*%
X128524000Y-76200000D03*
%TD*%
D18*
%TO.P,R3,1*%
%TO.N,Net-(Q1-Pad1)*%
X132080000Y-60452000D03*
D19*
%TO.P,R3,2*%
%TO.N,Net-(D2-Pad2)*%
X139700000Y-60452000D03*
%TD*%
D18*
%TO.P,R2,1*%
%TO.N,Net-(R2-Pad1)*%
X132080000Y-70104000D03*
D19*
%TO.P,R2,2*%
%TO.N,Net-(Q1-Pad2)*%
X139700000Y-70104000D03*
%TD*%
%TA.AperFunction,Conductor*%
%TO.N,GND*%
G36*
X147293913Y-58421136D02*
G01*
X147315137Y-58424006D01*
X147315140Y-58424006D01*
X147324030Y-58425208D01*
X147332901Y-58423867D01*
X147341882Y-58423796D01*
X147341889Y-58424713D01*
X147363411Y-58424614D01*
X147385885Y-58427805D01*
X147424468Y-58439830D01*
X147456472Y-58455814D01*
X147489269Y-58479442D01*
X147514558Y-58504731D01*
X147538186Y-58537528D01*
X147554170Y-58569532D01*
X147566196Y-58608122D01*
X147569311Y-58630066D01*
X147570386Y-58649816D01*
X147569043Y-58657433D01*
X147572687Y-58690438D01*
X147573239Y-58695436D01*
X147574000Y-58709264D01*
X147574000Y-73864671D01*
X147572500Y-73884055D01*
X147568814Y-73907729D01*
X147569978Y-73916629D01*
X147569868Y-73925605D01*
X147569050Y-73925595D01*
X147568759Y-73947086D01*
X147564690Y-73972778D01*
X147552508Y-74010270D01*
X147534549Y-74045517D01*
X147511377Y-74077410D01*
X147483410Y-74105377D01*
X147451517Y-74128549D01*
X147416270Y-74146508D01*
X147378779Y-74158690D01*
X147353941Y-74162624D01*
X147334232Y-74164054D01*
X147326269Y-74162814D01*
X147294748Y-74166936D01*
X147278410Y-74168000D01*
X138455433Y-74168000D01*
X138445545Y-74167611D01*
X138397334Y-74163816D01*
X138392474Y-74164186D01*
X138392471Y-74164186D01*
X138391283Y-74164277D01*
X138384830Y-74164768D01*
X138380092Y-74165879D01*
X138380093Y-74165879D01*
X138374114Y-74167281D01*
X138366590Y-74168806D01*
X138171918Y-74202098D01*
X138167084Y-74203764D01*
X138167080Y-74203765D01*
X138010000Y-74257901D01*
X137967626Y-74272505D01*
X137777417Y-74375037D01*
X137606304Y-74506993D01*
X137458794Y-74664896D01*
X137455956Y-74669145D01*
X137455952Y-74669150D01*
X137341615Y-74840334D01*
X137338776Y-74844585D01*
X137336662Y-74849240D01*
X137257492Y-75023536D01*
X137249412Y-75041324D01*
X137193057Y-75249930D01*
X137192540Y-75255013D01*
X137192539Y-75255019D01*
X137175091Y-75426608D01*
X137173547Y-75437248D01*
X137170692Y-75452354D01*
X137170288Y-75464887D01*
X137171697Y-75476367D01*
X137172318Y-75500642D01*
X137163190Y-75629081D01*
X137162007Y-75639531D01*
X137160000Y-75652423D01*
X137160000Y-75669497D01*
X137159683Y-75678429D01*
X137158692Y-75692373D01*
X137159011Y-75696840D01*
X137159011Y-75696843D01*
X137159680Y-75706207D01*
X137160000Y-75715183D01*
X137160000Y-82478882D01*
X137159701Y-82483848D01*
X137158493Y-82488340D01*
X137158689Y-82497316D01*
X137157611Y-82506224D01*
X137157257Y-82506181D01*
X137154864Y-82527468D01*
X137143685Y-82572049D01*
X137130775Y-82604078D01*
X137100000Y-82657749D01*
X137078878Y-82685071D01*
X137034688Y-82728370D01*
X137006941Y-82748931D01*
X136952659Y-82778604D01*
X136920377Y-82790859D01*
X136878356Y-82800491D01*
X136859731Y-82803315D01*
X136857826Y-82803459D01*
X136848869Y-82802862D01*
X136840107Y-82804802D01*
X136831154Y-82805480D01*
X136831132Y-82805185D01*
X136818168Y-82806602D01*
X126311188Y-82804010D01*
X126296085Y-82803097D01*
X126261391Y-82798898D01*
X126252536Y-82800364D01*
X126243560Y-82800559D01*
X126243542Y-82799742D01*
X126222057Y-82800181D01*
X126192720Y-82796553D01*
X126154831Y-82785652D01*
X126115782Y-82767400D01*
X126083122Y-82745329D01*
X126051624Y-82715905D01*
X126027380Y-82684817D01*
X126006514Y-82647094D01*
X125993065Y-82610039D01*
X125987615Y-82581868D01*
X125985515Y-82562217D01*
X125986483Y-82554219D01*
X125983079Y-82533653D01*
X125981387Y-82513065D01*
X125981470Y-81760692D01*
X125981606Y-80518000D01*
X128354693Y-80518000D01*
X128373885Y-80737371D01*
X128430880Y-80950076D01*
X128433205Y-80955061D01*
X128521618Y-81144666D01*
X128521621Y-81144671D01*
X128523944Y-81149653D01*
X128527100Y-81154160D01*
X128527101Y-81154162D01*
X128555801Y-81195149D01*
X128650251Y-81330038D01*
X128805962Y-81485749D01*
X128986346Y-81612056D01*
X129185924Y-81705120D01*
X129398629Y-81762115D01*
X129618000Y-81781307D01*
X129837371Y-81762115D01*
X130050076Y-81705120D01*
X130249654Y-81612056D01*
X130312342Y-81568161D01*
X132332393Y-81568161D01*
X132341687Y-81580175D01*
X132382088Y-81608464D01*
X132391584Y-81613947D01*
X132581113Y-81702326D01*
X132591405Y-81706072D01*
X132793401Y-81760196D01*
X132804196Y-81762099D01*
X133012525Y-81780326D01*
X133023475Y-81780326D01*
X133231804Y-81762099D01*
X133242599Y-81760196D01*
X133444595Y-81706072D01*
X133454887Y-81702326D01*
X133644416Y-81613947D01*
X133653912Y-81608464D01*
X133695148Y-81579590D01*
X133703523Y-81569112D01*
X133696457Y-81555668D01*
X133030811Y-80890021D01*
X133016868Y-80882408D01*
X133015034Y-80882539D01*
X133008420Y-80886790D01*
X132338820Y-81556391D01*
X132332393Y-81568161D01*
X130312342Y-81568161D01*
X130430038Y-81485749D01*
X130585749Y-81330038D01*
X130680200Y-81195149D01*
X130708899Y-81154162D01*
X130708900Y-81154160D01*
X130712056Y-81149653D01*
X130714379Y-81144671D01*
X130714382Y-81144666D01*
X130802795Y-80955061D01*
X130805120Y-80950076D01*
X130862115Y-80737371D01*
X130880828Y-80523475D01*
X131755674Y-80523475D01*
X131773901Y-80731804D01*
X131775804Y-80742599D01*
X131829928Y-80944595D01*
X131833674Y-80954887D01*
X131922054Y-81144417D01*
X131927534Y-81153907D01*
X131956411Y-81195149D01*
X131966887Y-81203523D01*
X131980334Y-81196455D01*
X132645979Y-80530811D01*
X132652356Y-80519132D01*
X133382408Y-80519132D01*
X133382539Y-80520966D01*
X133386790Y-80527580D01*
X134056391Y-81197180D01*
X134068161Y-81203607D01*
X134080176Y-81194311D01*
X134108466Y-81153907D01*
X134113946Y-81144417D01*
X134202326Y-80954887D01*
X134206072Y-80944595D01*
X134260196Y-80742599D01*
X134262099Y-80731804D01*
X134280326Y-80523475D01*
X134280326Y-80512525D01*
X134262099Y-80304196D01*
X134260196Y-80293401D01*
X134206072Y-80091405D01*
X134202326Y-80081113D01*
X134113946Y-79891583D01*
X134108466Y-79882093D01*
X134079589Y-79840851D01*
X134069113Y-79832477D01*
X134055666Y-79839545D01*
X133390021Y-80505189D01*
X133382408Y-80519132D01*
X132652356Y-80519132D01*
X132653592Y-80516868D01*
X132653461Y-80515034D01*
X132649210Y-80508420D01*
X131979609Y-79838820D01*
X131967839Y-79832393D01*
X131955824Y-79841689D01*
X131927534Y-79882093D01*
X131922054Y-79891583D01*
X131833674Y-80081113D01*
X131829928Y-80091405D01*
X131775804Y-80293401D01*
X131773901Y-80304196D01*
X131755674Y-80512525D01*
X131755674Y-80523475D01*
X130880828Y-80523475D01*
X130881307Y-80518000D01*
X130862115Y-80298629D01*
X130805120Y-80085924D01*
X130714498Y-79891583D01*
X130714382Y-79891334D01*
X130714379Y-79891329D01*
X130712056Y-79886347D01*
X130680786Y-79841689D01*
X130588908Y-79710473D01*
X130588906Y-79710470D01*
X130585749Y-79705962D01*
X130430038Y-79550251D01*
X130310983Y-79466887D01*
X132332477Y-79466887D01*
X132339545Y-79480334D01*
X133005189Y-80145979D01*
X133019132Y-80153592D01*
X133020966Y-80153461D01*
X133027580Y-80149210D01*
X133697180Y-79479609D01*
X133703607Y-79467839D01*
X133694313Y-79455825D01*
X133653912Y-79427536D01*
X133644416Y-79422053D01*
X133454887Y-79333674D01*
X133444595Y-79329928D01*
X133242599Y-79275804D01*
X133231804Y-79273901D01*
X133023475Y-79255674D01*
X133012525Y-79255674D01*
X132804196Y-79273901D01*
X132793401Y-79275804D01*
X132591405Y-79329928D01*
X132581113Y-79333674D01*
X132391583Y-79422054D01*
X132382093Y-79427534D01*
X132340851Y-79456411D01*
X132332477Y-79466887D01*
X130310983Y-79466887D01*
X130249654Y-79423944D01*
X130050076Y-79330880D01*
X129837371Y-79273885D01*
X129618000Y-79254693D01*
X129398629Y-79273885D01*
X129185924Y-79330880D01*
X129092562Y-79374415D01*
X128991334Y-79421618D01*
X128991329Y-79421621D01*
X128986347Y-79423944D01*
X128981840Y-79427100D01*
X128981838Y-79427101D01*
X128810473Y-79547092D01*
X128810470Y-79547094D01*
X128805962Y-79550251D01*
X128650251Y-79705962D01*
X128647094Y-79710470D01*
X128647092Y-79710473D01*
X128555214Y-79841689D01*
X128523944Y-79886347D01*
X128521621Y-79891329D01*
X128521618Y-79891334D01*
X128521502Y-79891583D01*
X128430880Y-80085924D01*
X128373885Y-80298629D01*
X128354693Y-80518000D01*
X125981606Y-80518000D01*
X125982079Y-76200000D01*
X127200464Y-76200000D01*
X127220571Y-76429830D01*
X127280283Y-76652676D01*
X127282608Y-76657661D01*
X127375458Y-76856781D01*
X127375461Y-76856786D01*
X127377784Y-76861768D01*
X127510113Y-77050753D01*
X127673247Y-77213887D01*
X127677755Y-77217044D01*
X127677758Y-77217046D01*
X127756630Y-77272272D01*
X127862232Y-77346216D01*
X127867214Y-77348539D01*
X127867219Y-77348542D01*
X127973558Y-77398128D01*
X128071324Y-77443717D01*
X128294170Y-77503429D01*
X128524000Y-77523536D01*
X128753830Y-77503429D01*
X128976676Y-77443717D01*
X129074442Y-77398128D01*
X129180781Y-77348542D01*
X129180786Y-77348539D01*
X129185768Y-77346216D01*
X129291370Y-77272272D01*
X129370242Y-77217046D01*
X129370245Y-77217044D01*
X129374753Y-77213887D01*
X129537887Y-77050753D01*
X129670216Y-76861768D01*
X129672539Y-76856786D01*
X129672542Y-76856781D01*
X129765392Y-76657661D01*
X129767717Y-76652676D01*
X129827429Y-76429830D01*
X129847536Y-76200000D01*
X132200464Y-76200000D01*
X132220571Y-76429830D01*
X132280283Y-76652676D01*
X132282608Y-76657661D01*
X132375458Y-76856781D01*
X132375461Y-76856786D01*
X132377784Y-76861768D01*
X132510113Y-77050753D01*
X132673247Y-77213887D01*
X132677755Y-77217044D01*
X132677758Y-77217046D01*
X132756630Y-77272272D01*
X132862232Y-77346216D01*
X132867214Y-77348539D01*
X132867219Y-77348542D01*
X132973558Y-77398128D01*
X133071324Y-77443717D01*
X133294170Y-77503429D01*
X133524000Y-77523536D01*
X133753830Y-77503429D01*
X133976676Y-77443717D01*
X134074442Y-77398128D01*
X134180781Y-77348542D01*
X134180786Y-77348539D01*
X134185768Y-77346216D01*
X134291370Y-77272272D01*
X134370242Y-77217046D01*
X134370245Y-77217044D01*
X134374753Y-77213887D01*
X134537887Y-77050753D01*
X134670216Y-76861768D01*
X134672539Y-76856786D01*
X134672542Y-76856781D01*
X134765392Y-76657661D01*
X134767717Y-76652676D01*
X134827429Y-76429830D01*
X134847536Y-76200000D01*
X134827429Y-75970170D01*
X134767717Y-75747324D01*
X134715027Y-75634329D01*
X134672542Y-75543219D01*
X134672539Y-75543214D01*
X134670216Y-75538232D01*
X134537887Y-75349247D01*
X134374753Y-75186113D01*
X134370245Y-75182956D01*
X134370242Y-75182954D01*
X134288297Y-75125576D01*
X134185768Y-75053784D01*
X134180786Y-75051461D01*
X134180781Y-75051458D01*
X134074442Y-75001872D01*
X133976676Y-74956283D01*
X133753830Y-74896571D01*
X133524000Y-74876464D01*
X133294170Y-74896571D01*
X133071324Y-74956283D01*
X132973558Y-75001872D01*
X132867219Y-75051458D01*
X132867214Y-75051461D01*
X132862232Y-75053784D01*
X132759703Y-75125576D01*
X132677758Y-75182954D01*
X132677755Y-75182956D01*
X132673247Y-75186113D01*
X132510113Y-75349247D01*
X132377784Y-75538232D01*
X132375461Y-75543214D01*
X132375458Y-75543219D01*
X132332973Y-75634329D01*
X132280283Y-75747324D01*
X132220571Y-75970170D01*
X132200464Y-76200000D01*
X129847536Y-76200000D01*
X129827429Y-75970170D01*
X129767717Y-75747324D01*
X129715027Y-75634329D01*
X129672542Y-75543219D01*
X129672539Y-75543214D01*
X129670216Y-75538232D01*
X129537887Y-75349247D01*
X129374753Y-75186113D01*
X129370245Y-75182956D01*
X129370242Y-75182954D01*
X129288297Y-75125576D01*
X129185768Y-75053784D01*
X129180786Y-75051461D01*
X129180781Y-75051458D01*
X129074442Y-75001872D01*
X128976676Y-74956283D01*
X128753830Y-74896571D01*
X128524000Y-74876464D01*
X128294170Y-74896571D01*
X128071324Y-74956283D01*
X127973558Y-75001872D01*
X127867219Y-75051458D01*
X127867214Y-75051461D01*
X127862232Y-75053784D01*
X127759703Y-75125576D01*
X127677758Y-75182954D01*
X127677755Y-75182956D01*
X127673247Y-75186113D01*
X127510113Y-75349247D01*
X127377784Y-75538232D01*
X127375461Y-75543214D01*
X127375458Y-75543219D01*
X127332973Y-75634329D01*
X127280283Y-75747324D01*
X127220571Y-75970170D01*
X127200464Y-76200000D01*
X125982079Y-76200000D01*
X125982353Y-73700000D01*
X129700464Y-73700000D01*
X129720571Y-73929830D01*
X129780283Y-74152676D01*
X129803329Y-74202098D01*
X129875458Y-74356781D01*
X129875461Y-74356786D01*
X129877784Y-74361768D01*
X130010113Y-74550753D01*
X130173247Y-74713887D01*
X130177755Y-74717044D01*
X130177758Y-74717046D01*
X130256630Y-74772272D01*
X130362232Y-74846216D01*
X130367214Y-74848539D01*
X130367219Y-74848542D01*
X130427099Y-74876464D01*
X130571324Y-74943717D01*
X130794170Y-75003429D01*
X131024000Y-75023536D01*
X131253830Y-75003429D01*
X131476676Y-74943717D01*
X131620901Y-74876464D01*
X131680781Y-74848542D01*
X131680786Y-74848539D01*
X131685768Y-74846216D01*
X131791370Y-74772272D01*
X131870242Y-74717046D01*
X131870245Y-74717044D01*
X131874753Y-74713887D01*
X132037887Y-74550753D01*
X132170216Y-74361768D01*
X132172539Y-74356786D01*
X132172542Y-74356781D01*
X132244671Y-74202098D01*
X132267717Y-74152676D01*
X132327429Y-73929830D01*
X132347536Y-73700000D01*
X132327429Y-73470170D01*
X132267717Y-73247324D01*
X132222128Y-73149558D01*
X132172542Y-73043219D01*
X132172539Y-73043214D01*
X132170216Y-73038232D01*
X132037887Y-72849247D01*
X131874753Y-72686113D01*
X131870245Y-72682956D01*
X131870242Y-72682954D01*
X131791370Y-72627728D01*
X131685768Y-72553784D01*
X131680786Y-72551461D01*
X131680781Y-72551458D01*
X131574442Y-72501872D01*
X131476676Y-72456283D01*
X131253830Y-72396571D01*
X131024000Y-72376464D01*
X130794170Y-72396571D01*
X130571324Y-72456283D01*
X130473558Y-72501872D01*
X130367219Y-72551458D01*
X130367214Y-72551461D01*
X130362232Y-72553784D01*
X130256630Y-72627728D01*
X130177758Y-72682954D01*
X130177755Y-72682956D01*
X130173247Y-72686113D01*
X130010113Y-72849247D01*
X129877784Y-73038232D01*
X129875461Y-73043214D01*
X129875458Y-73043219D01*
X129825872Y-73149558D01*
X129780283Y-73247324D01*
X129720571Y-73470170D01*
X129700464Y-73700000D01*
X125982353Y-73700000D01*
X125982565Y-71760134D01*
X127169500Y-71760134D01*
X127176255Y-71822316D01*
X127227385Y-71958705D01*
X127314739Y-72075261D01*
X127431295Y-72162615D01*
X127567684Y-72213745D01*
X127629866Y-72220500D01*
X129926134Y-72220500D01*
X129988316Y-72213745D01*
X130124705Y-72162615D01*
X130241261Y-72075261D01*
X130328615Y-71958705D01*
X130379745Y-71822316D01*
X130386500Y-71760134D01*
X130386500Y-70104000D01*
X130866884Y-70104000D01*
X130885314Y-70314655D01*
X130940044Y-70518910D01*
X131029411Y-70710558D01*
X131150699Y-70883776D01*
X131300224Y-71033301D01*
X131473442Y-71154589D01*
X131478420Y-71156910D01*
X131478423Y-71156912D01*
X131541858Y-71186492D01*
X131665090Y-71243956D01*
X131670398Y-71245378D01*
X131670400Y-71245379D01*
X131864030Y-71297262D01*
X131864032Y-71297262D01*
X131869345Y-71298686D01*
X132080000Y-71317116D01*
X132290655Y-71298686D01*
X132295968Y-71297262D01*
X132295970Y-71297262D01*
X132489600Y-71245379D01*
X132489602Y-71245378D01*
X132494910Y-71243956D01*
X132618142Y-71186492D01*
X132681577Y-71156912D01*
X132681580Y-71156910D01*
X132686558Y-71154589D01*
X132859776Y-71033301D01*
X133009301Y-70883776D01*
X133130589Y-70710558D01*
X133219956Y-70518910D01*
X133274686Y-70314655D01*
X133293116Y-70104000D01*
X138486884Y-70104000D01*
X138505314Y-70314655D01*
X138560044Y-70518910D01*
X138649411Y-70710558D01*
X138770699Y-70883776D01*
X138920224Y-71033301D01*
X139093442Y-71154589D01*
X139098420Y-71156910D01*
X139098423Y-71156912D01*
X139161858Y-71186492D01*
X139285090Y-71243956D01*
X139290398Y-71245378D01*
X139290400Y-71245379D01*
X139484030Y-71297262D01*
X139484032Y-71297262D01*
X139489345Y-71298686D01*
X139700000Y-71317116D01*
X139910655Y-71298686D01*
X139915968Y-71297262D01*
X139915970Y-71297262D01*
X140109600Y-71245379D01*
X140109602Y-71245378D01*
X140114910Y-71243956D01*
X140238142Y-71186492D01*
X140301577Y-71156912D01*
X140301580Y-71156910D01*
X140306558Y-71154589D01*
X140479776Y-71033301D01*
X140629301Y-70883776D01*
X140750589Y-70710558D01*
X140839956Y-70518910D01*
X140894686Y-70314655D01*
X140913116Y-70104000D01*
X140910095Y-70069469D01*
X141594095Y-70069469D01*
X141594392Y-70074622D01*
X141594392Y-70074625D01*
X141600067Y-70173041D01*
X141607427Y-70300697D01*
X141608564Y-70305743D01*
X141608565Y-70305749D01*
X141623394Y-70371548D01*
X141658346Y-70526642D01*
X141660288Y-70531424D01*
X141660289Y-70531428D01*
X141734856Y-70715063D01*
X141745484Y-70741237D01*
X141866501Y-70938719D01*
X142018147Y-71113784D01*
X142196349Y-71261730D01*
X142396322Y-71378584D01*
X142612694Y-71461209D01*
X142617760Y-71462240D01*
X142617761Y-71462240D01*
X142670846Y-71473040D01*
X142839656Y-71507385D01*
X142970324Y-71512176D01*
X143065949Y-71515683D01*
X143065953Y-71515683D01*
X143071113Y-71515872D01*
X143076233Y-71515216D01*
X143076235Y-71515216D01*
X143175668Y-71502478D01*
X143300847Y-71486442D01*
X143305795Y-71484957D01*
X143305802Y-71484956D01*
X143517747Y-71421369D01*
X143522690Y-71419886D01*
X143603236Y-71380427D01*
X143726049Y-71320262D01*
X143726052Y-71320260D01*
X143730684Y-71317991D01*
X143919243Y-71183494D01*
X143922898Y-71179852D01*
X143922906Y-71179845D01*
X143964697Y-71138199D01*
X144027068Y-71104282D01*
X144097875Y-71109470D01*
X144154637Y-71152116D01*
X144171619Y-71183218D01*
X144193677Y-71242056D01*
X144202214Y-71257649D01*
X144278715Y-71359724D01*
X144291276Y-71372285D01*
X144393351Y-71448786D01*
X144408946Y-71457324D01*
X144529394Y-71502478D01*
X144544649Y-71506105D01*
X144595514Y-71511631D01*
X144602328Y-71512000D01*
X145274885Y-71512000D01*
X145290124Y-71507525D01*
X145291329Y-71506135D01*
X145293000Y-71498452D01*
X145293000Y-71493884D01*
X145801000Y-71493884D01*
X145805475Y-71509123D01*
X145806865Y-71510328D01*
X145814548Y-71511999D01*
X146491669Y-71511999D01*
X146498490Y-71511629D01*
X146549352Y-71506105D01*
X146564604Y-71502479D01*
X146685054Y-71457324D01*
X146700649Y-71448786D01*
X146802724Y-71372285D01*
X146815285Y-71359724D01*
X146891786Y-71257649D01*
X146900324Y-71242054D01*
X146945478Y-71121606D01*
X146949105Y-71106351D01*
X146954631Y-71055486D01*
X146955000Y-71048672D01*
X146955000Y-70376115D01*
X146950525Y-70360876D01*
X146949135Y-70359671D01*
X146941452Y-70358000D01*
X145819115Y-70358000D01*
X145803876Y-70362475D01*
X145802671Y-70363865D01*
X145801000Y-70371548D01*
X145801000Y-71493884D01*
X145293000Y-71493884D01*
X145293000Y-69831885D01*
X145801000Y-69831885D01*
X145805475Y-69847124D01*
X145806865Y-69848329D01*
X145814548Y-69850000D01*
X146936884Y-69850000D01*
X146952123Y-69845525D01*
X146953328Y-69844135D01*
X146954999Y-69836452D01*
X146954999Y-69159331D01*
X146954629Y-69152510D01*
X146949105Y-69101648D01*
X146945479Y-69086396D01*
X146900324Y-68965946D01*
X146891786Y-68950351D01*
X146815285Y-68848276D01*
X146802724Y-68835715D01*
X146700649Y-68759214D01*
X146685054Y-68750676D01*
X146564606Y-68705522D01*
X146549351Y-68701895D01*
X146498486Y-68696369D01*
X146491672Y-68696000D01*
X145819115Y-68696000D01*
X145803876Y-68700475D01*
X145802671Y-68701865D01*
X145801000Y-68709548D01*
X145801000Y-69831885D01*
X145293000Y-69831885D01*
X145293000Y-68714116D01*
X145288525Y-68698877D01*
X145287135Y-68697672D01*
X145279452Y-68696001D01*
X144602331Y-68696001D01*
X144595510Y-68696371D01*
X144544648Y-68701895D01*
X144529396Y-68705521D01*
X144408946Y-68750676D01*
X144393351Y-68759214D01*
X144291276Y-68835715D01*
X144278715Y-68848276D01*
X144202214Y-68950351D01*
X144193675Y-68965948D01*
X144172934Y-69021275D01*
X144130293Y-69078040D01*
X144063731Y-69102740D01*
X143994383Y-69087533D01*
X143971388Y-69070909D01*
X143970887Y-69070358D01*
X143886230Y-69003500D01*
X143793177Y-68930011D01*
X143793172Y-68930008D01*
X143789123Y-68926810D01*
X143784607Y-68924317D01*
X143784604Y-68924315D01*
X143590879Y-68817373D01*
X143590875Y-68817371D01*
X143586355Y-68814876D01*
X143581486Y-68813152D01*
X143581482Y-68813150D01*
X143372903Y-68739288D01*
X143372899Y-68739287D01*
X143368028Y-68737562D01*
X143362935Y-68736655D01*
X143362932Y-68736654D01*
X143145095Y-68697851D01*
X143145089Y-68697850D01*
X143140006Y-68696945D01*
X143062644Y-68696000D01*
X142913581Y-68694179D01*
X142913579Y-68694179D01*
X142908411Y-68694116D01*
X142679464Y-68729150D01*
X142459314Y-68801106D01*
X142454726Y-68803494D01*
X142454722Y-68803496D01*
X142285931Y-68891363D01*
X142253872Y-68908052D01*
X142249739Y-68911155D01*
X142249736Y-68911157D01*
X142103073Y-69021275D01*
X142068655Y-69047117D01*
X141908639Y-69214564D01*
X141905725Y-69218836D01*
X141905724Y-69218837D01*
X141874033Y-69265295D01*
X141778119Y-69405899D01*
X141680602Y-69615981D01*
X141618707Y-69839169D01*
X141594095Y-70069469D01*
X140910095Y-70069469D01*
X140894686Y-69893345D01*
X140839956Y-69689090D01*
X140805865Y-69615981D01*
X140752912Y-69502423D01*
X140752910Y-69502420D01*
X140750589Y-69497442D01*
X140629301Y-69324224D01*
X140479776Y-69174699D01*
X140306558Y-69053411D01*
X140301580Y-69051090D01*
X140301577Y-69051088D01*
X140119892Y-68966367D01*
X140119891Y-68966366D01*
X140114910Y-68964044D01*
X140109602Y-68962622D01*
X140109600Y-68962621D01*
X139915970Y-68910738D01*
X139915968Y-68910738D01*
X139910655Y-68909314D01*
X139700000Y-68890884D01*
X139489345Y-68909314D01*
X139484032Y-68910738D01*
X139484030Y-68910738D01*
X139290400Y-68962621D01*
X139290398Y-68962622D01*
X139285090Y-68964044D01*
X139280109Y-68966366D01*
X139280108Y-68966367D01*
X139098423Y-69051088D01*
X139098420Y-69051090D01*
X139093442Y-69053411D01*
X138920224Y-69174699D01*
X138770699Y-69324224D01*
X138649411Y-69497442D01*
X138647090Y-69502420D01*
X138647088Y-69502423D01*
X138594135Y-69615981D01*
X138560044Y-69689090D01*
X138505314Y-69893345D01*
X138486884Y-70104000D01*
X133293116Y-70104000D01*
X133274686Y-69893345D01*
X133219956Y-69689090D01*
X133185865Y-69615981D01*
X133132912Y-69502423D01*
X133132910Y-69502420D01*
X133130589Y-69497442D01*
X133009301Y-69324224D01*
X132859776Y-69174699D01*
X132686558Y-69053411D01*
X132681580Y-69051090D01*
X132681577Y-69051088D01*
X132499892Y-68966367D01*
X132499891Y-68966366D01*
X132494910Y-68964044D01*
X132489602Y-68962622D01*
X132489600Y-68962621D01*
X132295970Y-68910738D01*
X132295968Y-68910738D01*
X132290655Y-68909314D01*
X132080000Y-68890884D01*
X131869345Y-68909314D01*
X131864032Y-68910738D01*
X131864030Y-68910738D01*
X131670400Y-68962621D01*
X131670398Y-68962622D01*
X131665090Y-68964044D01*
X131660109Y-68966366D01*
X131660108Y-68966367D01*
X131478423Y-69051088D01*
X131478420Y-69051090D01*
X131473442Y-69053411D01*
X131300224Y-69174699D01*
X131150699Y-69324224D01*
X131029411Y-69497442D01*
X131027090Y-69502420D01*
X131027088Y-69502423D01*
X130974135Y-69615981D01*
X130940044Y-69689090D01*
X130885314Y-69893345D01*
X130866884Y-70104000D01*
X130386500Y-70104000D01*
X130386500Y-69463866D01*
X130379745Y-69401684D01*
X130328615Y-69265295D01*
X130241261Y-69148739D01*
X130124705Y-69061385D01*
X129988316Y-69010255D01*
X129926134Y-69003500D01*
X127629866Y-69003500D01*
X127567684Y-69010255D01*
X127431295Y-69061385D01*
X127314739Y-69148739D01*
X127227385Y-69265295D01*
X127176255Y-69401684D01*
X127169500Y-69463866D01*
X127169500Y-71760134D01*
X125982565Y-71760134D01*
X125982592Y-71515683D01*
X125983257Y-65448004D01*
X131554500Y-65448004D01*
X131569277Y-65598713D01*
X131627858Y-65792742D01*
X131723010Y-65971698D01*
X131851110Y-66128763D01*
X131855857Y-66132690D01*
X131855859Y-66132692D01*
X132002528Y-66254027D01*
X132002531Y-66254029D01*
X132007278Y-66257956D01*
X132185565Y-66354356D01*
X132254733Y-66375767D01*
X132373293Y-66412468D01*
X132373296Y-66412469D01*
X132379180Y-66414290D01*
X132385305Y-66414934D01*
X132385306Y-66414934D01*
X132574622Y-66434832D01*
X132574623Y-66434832D01*
X132580750Y-66435476D01*
X132664014Y-66427898D01*
X132776457Y-66417665D01*
X132776460Y-66417664D01*
X132782596Y-66417106D01*
X132788502Y-66415368D01*
X132788506Y-66415367D01*
X132971120Y-66361620D01*
X132971119Y-66361620D01*
X132977029Y-66359881D01*
X132982486Y-66357028D01*
X132982489Y-66357027D01*
X133119765Y-66285261D01*
X133156460Y-66266077D01*
X133156462Y-66266077D01*
X133156645Y-66265981D01*
X133156663Y-66266016D01*
X133222441Y-66246111D01*
X133283409Y-66261271D01*
X133455565Y-66354356D01*
X133524733Y-66375767D01*
X133643293Y-66412468D01*
X133643296Y-66412469D01*
X133649180Y-66414290D01*
X133655305Y-66414934D01*
X133655306Y-66414934D01*
X133844622Y-66434832D01*
X133844623Y-66434832D01*
X133850750Y-66435476D01*
X133934014Y-66427898D01*
X134046457Y-66417665D01*
X134046460Y-66417664D01*
X134052596Y-66417106D01*
X134058502Y-66415368D01*
X134058506Y-66415367D01*
X134241121Y-66361620D01*
X134241123Y-66361619D01*
X134244111Y-66360740D01*
X134247029Y-66359881D01*
X134247282Y-66360740D01*
X134312662Y-66354286D01*
X134349406Y-66367452D01*
X134356295Y-66372615D01*
X134364696Y-66375764D01*
X134364699Y-66375766D01*
X134445414Y-66406024D01*
X134492684Y-66423745D01*
X134554866Y-66430500D01*
X135701134Y-66430500D01*
X135763316Y-66423745D01*
X135899705Y-66372615D01*
X136016261Y-66285261D01*
X136103615Y-66168705D01*
X136154745Y-66032316D01*
X136161500Y-65970134D01*
X136161500Y-64373866D01*
X136154745Y-64311684D01*
X136103615Y-64175295D01*
X136016261Y-64058739D01*
X135899705Y-63971385D01*
X135763316Y-63920255D01*
X135701134Y-63913500D01*
X134554866Y-63913500D01*
X134492684Y-63920255D01*
X134476466Y-63926335D01*
X134364704Y-63968232D01*
X134364701Y-63968234D01*
X134356295Y-63971385D01*
X134349106Y-63976773D01*
X134348863Y-63976906D01*
X134279506Y-63992076D01*
X134251092Y-63986752D01*
X134242587Y-63984119D01*
X134066820Y-63929710D01*
X134060695Y-63929066D01*
X134060694Y-63929066D01*
X133871378Y-63909168D01*
X133871377Y-63909168D01*
X133865250Y-63908524D01*
X133781986Y-63916102D01*
X133669543Y-63926335D01*
X133669540Y-63926336D01*
X133663404Y-63926894D01*
X133657498Y-63928632D01*
X133657494Y-63928633D01*
X133522950Y-63968232D01*
X133468971Y-63984119D01*
X133463514Y-63986972D01*
X133463511Y-63986973D01*
X133379163Y-64031069D01*
X133289540Y-64077923D01*
X133289538Y-64077923D01*
X133289355Y-64078019D01*
X133289337Y-64077984D01*
X133223559Y-64097889D01*
X133162591Y-64082729D01*
X133153815Y-64077984D01*
X132990435Y-63989644D01*
X132893627Y-63959677D01*
X132802707Y-63931532D01*
X132802704Y-63931531D01*
X132796820Y-63929710D01*
X132790695Y-63929066D01*
X132790694Y-63929066D01*
X132601378Y-63909168D01*
X132601377Y-63909168D01*
X132595250Y-63908524D01*
X132511986Y-63916102D01*
X132399543Y-63926335D01*
X132399540Y-63926336D01*
X132393404Y-63926894D01*
X132387498Y-63928632D01*
X132387494Y-63928633D01*
X132252950Y-63968232D01*
X132198971Y-63984119D01*
X132193514Y-63986972D01*
X132193511Y-63986973D01*
X132109163Y-64031069D01*
X132019355Y-64078019D01*
X131861399Y-64205019D01*
X131731119Y-64360281D01*
X131728155Y-64365673D01*
X131728152Y-64365677D01*
X131721772Y-64377283D01*
X131633477Y-64537891D01*
X131572193Y-64731084D01*
X131554500Y-64888817D01*
X131554500Y-65448004D01*
X125983257Y-65448004D01*
X125983586Y-62449469D01*
X141335095Y-62449469D01*
X141348427Y-62680697D01*
X141349564Y-62685743D01*
X141349565Y-62685749D01*
X141364394Y-62751548D01*
X141399346Y-62906642D01*
X141401288Y-62911424D01*
X141401289Y-62911428D01*
X141484540Y-63116450D01*
X141486484Y-63121237D01*
X141607501Y-63318719D01*
X141759147Y-63493784D01*
X141937349Y-63641730D01*
X142137322Y-63758584D01*
X142353694Y-63841209D01*
X142358760Y-63842240D01*
X142358761Y-63842240D01*
X142411846Y-63853040D01*
X142580656Y-63887385D01*
X142711324Y-63892176D01*
X142806949Y-63895683D01*
X142806953Y-63895683D01*
X142812113Y-63895872D01*
X142817233Y-63895216D01*
X142817235Y-63895216D01*
X142916668Y-63882478D01*
X143041847Y-63866442D01*
X143046795Y-63864957D01*
X143046802Y-63864956D01*
X143258747Y-63801369D01*
X143263690Y-63799886D01*
X143344236Y-63760427D01*
X143467049Y-63700262D01*
X143467052Y-63700260D01*
X143471684Y-63697991D01*
X143660243Y-63563494D01*
X143663898Y-63559852D01*
X143663906Y-63559845D01*
X143705697Y-63518199D01*
X143768068Y-63484282D01*
X143838875Y-63489470D01*
X143895637Y-63532116D01*
X143912619Y-63563218D01*
X143934677Y-63622056D01*
X143943214Y-63637649D01*
X144019715Y-63739724D01*
X144032276Y-63752285D01*
X144134351Y-63828786D01*
X144149946Y-63837324D01*
X144270394Y-63882478D01*
X144285649Y-63886105D01*
X144336514Y-63891631D01*
X144343328Y-63892000D01*
X145015885Y-63892000D01*
X145031124Y-63887525D01*
X145032329Y-63886135D01*
X145034000Y-63878452D01*
X145034000Y-63873884D01*
X145542000Y-63873884D01*
X145546475Y-63889123D01*
X145547865Y-63890328D01*
X145555548Y-63891999D01*
X146232669Y-63891999D01*
X146239490Y-63891629D01*
X146290352Y-63886105D01*
X146305604Y-63882479D01*
X146426054Y-63837324D01*
X146441649Y-63828786D01*
X146543724Y-63752285D01*
X146556285Y-63739724D01*
X146632786Y-63637649D01*
X146641324Y-63622054D01*
X146686478Y-63501606D01*
X146690105Y-63486351D01*
X146695631Y-63435486D01*
X146696000Y-63428672D01*
X146696000Y-62756115D01*
X146691525Y-62740876D01*
X146690135Y-62739671D01*
X146682452Y-62738000D01*
X145560115Y-62738000D01*
X145544876Y-62742475D01*
X145543671Y-62743865D01*
X145542000Y-62751548D01*
X145542000Y-63873884D01*
X145034000Y-63873884D01*
X145034000Y-62211885D01*
X145542000Y-62211885D01*
X145546475Y-62227124D01*
X145547865Y-62228329D01*
X145555548Y-62230000D01*
X146677884Y-62230000D01*
X146693123Y-62225525D01*
X146694328Y-62224135D01*
X146695999Y-62216452D01*
X146695999Y-61539331D01*
X146695629Y-61532510D01*
X146690105Y-61481648D01*
X146686479Y-61466396D01*
X146641324Y-61345946D01*
X146632786Y-61330351D01*
X146556285Y-61228276D01*
X146543724Y-61215715D01*
X146441649Y-61139214D01*
X146426054Y-61130676D01*
X146305606Y-61085522D01*
X146290351Y-61081895D01*
X146239486Y-61076369D01*
X146232672Y-61076000D01*
X145560115Y-61076000D01*
X145544876Y-61080475D01*
X145543671Y-61081865D01*
X145542000Y-61089548D01*
X145542000Y-62211885D01*
X145034000Y-62211885D01*
X145034000Y-61094116D01*
X145029525Y-61078877D01*
X145028135Y-61077672D01*
X145020452Y-61076001D01*
X144343331Y-61076001D01*
X144336510Y-61076371D01*
X144285648Y-61081895D01*
X144270396Y-61085521D01*
X144149946Y-61130676D01*
X144134351Y-61139214D01*
X144032276Y-61215715D01*
X144019715Y-61228276D01*
X143943214Y-61330351D01*
X143934675Y-61345948D01*
X143913934Y-61401275D01*
X143871293Y-61458040D01*
X143804731Y-61482740D01*
X143735383Y-61467533D01*
X143712388Y-61450909D01*
X143711887Y-61450358D01*
X143678527Y-61424012D01*
X143534177Y-61310011D01*
X143534172Y-61310008D01*
X143530123Y-61306810D01*
X143525607Y-61304317D01*
X143525604Y-61304315D01*
X143331879Y-61197373D01*
X143331875Y-61197371D01*
X143327355Y-61194876D01*
X143322486Y-61193152D01*
X143322482Y-61193150D01*
X143113903Y-61119288D01*
X143113899Y-61119287D01*
X143109028Y-61117562D01*
X143103935Y-61116655D01*
X143103932Y-61116654D01*
X142886095Y-61077851D01*
X142886089Y-61077850D01*
X142881006Y-61076945D01*
X142803644Y-61076000D01*
X142654581Y-61074179D01*
X142654579Y-61074179D01*
X142649411Y-61074116D01*
X142420464Y-61109150D01*
X142200314Y-61181106D01*
X142195726Y-61183494D01*
X142195722Y-61183496D01*
X142095495Y-61235671D01*
X141994872Y-61288052D01*
X141990739Y-61291155D01*
X141990736Y-61291157D01*
X141844073Y-61401275D01*
X141809655Y-61427117D01*
X141649639Y-61594564D01*
X141519119Y-61785899D01*
X141421602Y-61995981D01*
X141359707Y-62219169D01*
X141335095Y-62449469D01*
X125983586Y-62449469D01*
X125983805Y-60452000D01*
X127164526Y-60452000D01*
X127184391Y-60704403D01*
X127243495Y-60950591D01*
X127245388Y-60955162D01*
X127245389Y-60955164D01*
X127338312Y-61179499D01*
X127340384Y-61184502D01*
X127342970Y-61188722D01*
X127346741Y-61194876D01*
X127472672Y-61400376D01*
X127637102Y-61592898D01*
X127829624Y-61757328D01*
X128045498Y-61889616D01*
X128050068Y-61891509D01*
X128050072Y-61891511D01*
X128274836Y-61984611D01*
X128279409Y-61986505D01*
X128318880Y-61995981D01*
X128520784Y-62044454D01*
X128520790Y-62044455D01*
X128525597Y-62045609D01*
X128778000Y-62065474D01*
X129030403Y-62045609D01*
X129035210Y-62044455D01*
X129035216Y-62044454D01*
X129237120Y-61995981D01*
X129276591Y-61986505D01*
X129281164Y-61984611D01*
X129505928Y-61891511D01*
X129505932Y-61891509D01*
X129510502Y-61889616D01*
X129726376Y-61757328D01*
X129918898Y-61592898D01*
X130083328Y-61400376D01*
X130209259Y-61194876D01*
X130213030Y-61188722D01*
X130215616Y-61184502D01*
X130217689Y-61179499D01*
X130310611Y-60955164D01*
X130310612Y-60955162D01*
X130312505Y-60950591D01*
X130371609Y-60704403D01*
X130391474Y-60452000D01*
X130866884Y-60452000D01*
X130885314Y-60662655D01*
X130940044Y-60866910D01*
X130942366Y-60871891D01*
X130942367Y-60871892D01*
X130981198Y-60955164D01*
X131029411Y-61058558D01*
X131150699Y-61231776D01*
X131300224Y-61381301D01*
X131473442Y-61502589D01*
X131478420Y-61504910D01*
X131478423Y-61504912D01*
X131552235Y-61539331D01*
X131665090Y-61591956D01*
X131670398Y-61593378D01*
X131670400Y-61593379D01*
X131864030Y-61645262D01*
X131864032Y-61645262D01*
X131869345Y-61646686D01*
X132080000Y-61665116D01*
X132290655Y-61646686D01*
X132295968Y-61645262D01*
X132295970Y-61645262D01*
X132489600Y-61593379D01*
X132489602Y-61593378D01*
X132494910Y-61591956D01*
X132607765Y-61539331D01*
X132681577Y-61504912D01*
X132681580Y-61504910D01*
X132686558Y-61502589D01*
X132859776Y-61381301D01*
X133009301Y-61231776D01*
X133130589Y-61058558D01*
X133178803Y-60955164D01*
X133217633Y-60871892D01*
X133217634Y-60871891D01*
X133219956Y-60866910D01*
X133274686Y-60662655D01*
X133293116Y-60452000D01*
X138486884Y-60452000D01*
X138505314Y-60662655D01*
X138560044Y-60866910D01*
X138562366Y-60871891D01*
X138562367Y-60871892D01*
X138601198Y-60955164D01*
X138649411Y-61058558D01*
X138770699Y-61231776D01*
X138920224Y-61381301D01*
X139093442Y-61502589D01*
X139098420Y-61504910D01*
X139098423Y-61504912D01*
X139172235Y-61539331D01*
X139285090Y-61591956D01*
X139290398Y-61593378D01*
X139290400Y-61593379D01*
X139484030Y-61645262D01*
X139484032Y-61645262D01*
X139489345Y-61646686D01*
X139700000Y-61665116D01*
X139910655Y-61646686D01*
X139915968Y-61645262D01*
X139915970Y-61645262D01*
X140109600Y-61593379D01*
X140109602Y-61593378D01*
X140114910Y-61591956D01*
X140227765Y-61539331D01*
X140301577Y-61504912D01*
X140301580Y-61504910D01*
X140306558Y-61502589D01*
X140479776Y-61381301D01*
X140629301Y-61231776D01*
X140750589Y-61058558D01*
X140798803Y-60955164D01*
X140837633Y-60871892D01*
X140837634Y-60871891D01*
X140839956Y-60866910D01*
X140894686Y-60662655D01*
X140913116Y-60452000D01*
X140894686Y-60241345D01*
X140839956Y-60037090D01*
X140800935Y-59953409D01*
X140752912Y-59850423D01*
X140752910Y-59850420D01*
X140750589Y-59845442D01*
X140629301Y-59672224D01*
X140479776Y-59522699D01*
X140306558Y-59401411D01*
X140301580Y-59399090D01*
X140301577Y-59399088D01*
X140119892Y-59314367D01*
X140119891Y-59314366D01*
X140114910Y-59312044D01*
X140109602Y-59310622D01*
X140109600Y-59310621D01*
X139915970Y-59258738D01*
X139915968Y-59258738D01*
X139910655Y-59257314D01*
X139700000Y-59238884D01*
X139489345Y-59257314D01*
X139484032Y-59258738D01*
X139484030Y-59258738D01*
X139290400Y-59310621D01*
X139290398Y-59310622D01*
X139285090Y-59312044D01*
X139280109Y-59314366D01*
X139280108Y-59314367D01*
X139098423Y-59399088D01*
X139098420Y-59399090D01*
X139093442Y-59401411D01*
X138920224Y-59522699D01*
X138770699Y-59672224D01*
X138649411Y-59845442D01*
X138647090Y-59850420D01*
X138647088Y-59850423D01*
X138599065Y-59953409D01*
X138560044Y-60037090D01*
X138505314Y-60241345D01*
X138486884Y-60452000D01*
X133293116Y-60452000D01*
X133274686Y-60241345D01*
X133219956Y-60037090D01*
X133180935Y-59953409D01*
X133132912Y-59850423D01*
X133132910Y-59850420D01*
X133130589Y-59845442D01*
X133009301Y-59672224D01*
X132859776Y-59522699D01*
X132686558Y-59401411D01*
X132681580Y-59399090D01*
X132681577Y-59399088D01*
X132499892Y-59314367D01*
X132499891Y-59314366D01*
X132494910Y-59312044D01*
X132489602Y-59310622D01*
X132489600Y-59310621D01*
X132295970Y-59258738D01*
X132295968Y-59258738D01*
X132290655Y-59257314D01*
X132080000Y-59238884D01*
X131869345Y-59257314D01*
X131864032Y-59258738D01*
X131864030Y-59258738D01*
X131670400Y-59310621D01*
X131670398Y-59310622D01*
X131665090Y-59312044D01*
X131660109Y-59314366D01*
X131660108Y-59314367D01*
X131478423Y-59399088D01*
X131478420Y-59399090D01*
X131473442Y-59401411D01*
X131300224Y-59522699D01*
X131150699Y-59672224D01*
X131029411Y-59845442D01*
X131027090Y-59850420D01*
X131027088Y-59850423D01*
X130979065Y-59953409D01*
X130940044Y-60037090D01*
X130885314Y-60241345D01*
X130866884Y-60452000D01*
X130391474Y-60452000D01*
X130371609Y-60199597D01*
X130312505Y-59953409D01*
X130215616Y-59719498D01*
X130083328Y-59503624D01*
X129918898Y-59311102D01*
X129726376Y-59146672D01*
X129510502Y-59014384D01*
X129505932Y-59012491D01*
X129505928Y-59012489D01*
X129281164Y-58919389D01*
X129281162Y-58919388D01*
X129276591Y-58917495D01*
X129191968Y-58897179D01*
X129035216Y-58859546D01*
X129035210Y-58859545D01*
X129030403Y-58858391D01*
X128778000Y-58838526D01*
X128525597Y-58858391D01*
X128520790Y-58859545D01*
X128520784Y-58859546D01*
X128364032Y-58897179D01*
X128279409Y-58917495D01*
X128274838Y-58919388D01*
X128274836Y-58919389D01*
X128050072Y-59012489D01*
X128050068Y-59012491D01*
X128045498Y-59014384D01*
X127829624Y-59146672D01*
X127637102Y-59311102D01*
X127472672Y-59503624D01*
X127340384Y-59719498D01*
X127243495Y-59953409D01*
X127184391Y-60199597D01*
X127164526Y-60452000D01*
X125983805Y-60452000D01*
X125983994Y-58729642D01*
X125985903Y-58707808D01*
X125987405Y-58699279D01*
X125987405Y-58699275D01*
X125988961Y-58690438D01*
X125987974Y-58681520D01*
X125988262Y-58672543D01*
X125989079Y-58672569D01*
X125989796Y-58651090D01*
X125995231Y-58620688D01*
X126008154Y-58583446D01*
X126029101Y-58544274D01*
X126052900Y-58512847D01*
X126084930Y-58482062D01*
X126117275Y-58459527D01*
X126157247Y-58440148D01*
X126194973Y-58428711D01*
X126224705Y-58424604D01*
X126244446Y-58423565D01*
X126252378Y-58424961D01*
X126290305Y-58420764D01*
X126304164Y-58420000D01*
X147277031Y-58420000D01*
X147293913Y-58421136D01*
G37*
%TD.AperFunction*%
%TD*%
M02*
